<svg width="34" height="34" viewBox="0 0 34 34" fill="none" xmlns="http://www.w3.org/2000/svg">
<path d="M16.5349 16.9998C16.5349 15.9389 16.9563 14.9215 17.7065 14.1713C18.4567 13.4212 19.4741 12.9998 20.535 12.9998C21.5958 12.9998 22.6133 13.4212 23.3634 14.1713C24.1136 14.9215 24.535 15.9389 24.535 16.9998C24.535 18.0607 24.1136 19.0781 23.3634 19.8283C22.6133 20.5784 21.5958 20.9998 20.535 20.9998C19.4741 20.9998 18.4567 20.5784 17.7065 19.8283C16.9563 19.0781 16.5349 18.0607 16.5349 16.9998V16.9998Z" stroke="white" stroke-width="1.12001"/>
<path d="M8.53491 25.0002C8.53491 23.9393 8.95634 22.9219 9.7065 22.1717C10.4567 21.4216 11.4741 21.0001 12.535 21.0001H16.535V25.0002C16.535 26.061 16.1136 27.0785 15.3634 27.8286C14.6133 28.5788 13.5958 29.0002 12.535 29.0002C11.4741 29.0002 10.4567 28.5788 9.7065 27.8286C8.95634 27.0785 8.53491 26.061 8.53491 25.0002Z" stroke="white" stroke-width="1.12001"/>
<path d="M16.5349 5V13.0001H20.535C21.5958 13.0001 22.6133 12.5787 23.3634 11.8285C24.1136 11.0783 24.535 10.0609 24.535 9.00004C24.535 7.93916 24.1136 6.92174 23.3634 6.17158C22.6133 5.42143 21.5958 5 20.535 5H16.5349Z" stroke="white" stroke-width="1.12001"/>
<path d="M8.53491 9.00004C8.53491 10.0609 8.95634 11.0783 9.7065 11.8285C10.4567 12.5787 11.4741 13.0001 12.535 13.0001H16.535V5H12.535C11.4741 5 10.4567 5.42143 9.7065 6.17158C8.95634 6.92174 8.53491 7.93916 8.53491 9.00004Z" stroke="white" stroke-width="1.12001"/>
<path d="M8.53491 16.9998C8.53491 18.0607 8.95634 19.0781 9.7065 19.8283C10.4567 20.5784 11.4741 20.9998 12.535 20.9998H16.535V12.9998H12.535C11.4741 12.9998 10.4567 13.4212 9.7065 14.1713C8.95634 14.9215 8.53491 15.9389 8.53491 16.9998Z" stroke="white" stroke-width="1.12001"/>
</svg>
