<svg width="41" height="41" viewBox="0 0 41 41" fill="none" xmlns="http://www.w3.org/2000/svg">
<path d="M34.8333 18.1667H5.66667M34.8333 18.1667C37.1345 18.1667 39 20.0321 39 22.3333V34.8333C39 37.1345 37.1345 39 34.8333 39H5.66667C3.36548 39 1.5 37.1345 1.5 34.8333V22.3333C1.5 20.0321 3.36548 18.1667 5.66667 18.1667M34.8333 18.1667V14C34.8333 11.6988 32.9679 9.83333 30.6667 9.83333M5.66667 18.1667V14C5.66667 11.6988 7.53215 9.83333 9.83333 9.83333M9.83333 9.83333V5.66667C9.83333 3.36548 11.6988 1.5 14 1.5H26.5C28.8012 1.5 30.6667 3.36548 30.6667 5.66667V9.83333M9.83333 9.83333H30.6667" stroke="#A0A0A1" stroke-width="3" stroke-linecap="round" stroke-linejoin="round"/>
</svg>
