<svg width="37" height="37" viewBox="0 0 37 37" fill="none" xmlns="http://www.w3.org/2000/svg">
<path d="M1.5 3.58333C1.5 2.43274 2.43274 1.5 3.58333 1.5H32.75C33.9006 1.5 34.8333 2.43274 34.8333 3.58333V7.75C34.8333 8.90059 33.9006 9.83333 32.75 9.83333H3.58333C2.43274 9.83333 1.5 8.90059 1.5 7.75V3.58333Z" stroke="#A0A0A1" stroke-width="3" stroke-linecap="round" stroke-linejoin="round"/>
<path d="M1.5 20.25C1.5 19.0994 2.43274 18.1667 3.58333 18.1667H16.0833C17.2339 18.1667 18.1667 19.0994 18.1667 20.25V32.75C18.1667 33.9006 17.2339 34.8333 16.0833 34.8333H3.58333C2.43274 34.8333 1.5 33.9006 1.5 32.75V20.25Z" stroke="#A0A0A1" stroke-width="3" stroke-linecap="round" stroke-linejoin="round"/>
<path d="M26.5 20.25C26.5 19.0994 27.4327 18.1667 28.5833 18.1667H32.75C33.9006 18.1667 34.8333 19.0994 34.8333 20.25V32.75C34.8333 33.9006 33.9006 34.8333 32.75 34.8333H28.5833C27.4327 34.8333 26.5 33.9006 26.5 32.75V20.25Z" stroke="#A0A0A1" stroke-width="3" stroke-linecap="round" stroke-linejoin="round"/>
</svg>
