<svg width="41" height="41" viewBox="0 0 41 41" fill="none" xmlns="http://www.w3.org/2000/svg">
<path d="M18.1667 7.50467V35.3338C18.1667 37.3587 16.5252 39.0001 14.5004 39.0001C12.9509 39.0001 11.5688 38.0261 11.0477 36.5669L6.57599 23.7561M32.75 22.3335C36.2018 22.3335 39 19.5352 39 16.0835C39 12.6317 36.2018 9.83346 32.75 9.83346M6.57599 23.7561C3.59229 22.4878 1.5 19.53 1.5 16.0834C1.5 11.4811 5.23095 7.75012 9.83332 7.75012H13.6502C22.1932 7.75012 29.5352 5.17909 32.75 1.50012L32.75 30.6668C29.5352 26.9878 22.1932 24.4168 13.6502 24.4168L9.83328 24.4168C8.67746 24.4168 7.5766 24.1814 6.57599 23.7561Z" stroke="#A0A0A1" stroke-width="3" stroke-linecap="round" stroke-linejoin="round"/>
</svg>
