<svg width="112" height="32" viewBox="0 0 112 32" fill="none" xmlns="http://www.w3.org/2000/svg">
<path d="M19.92 7.248V24H16.56V13.104L12.072 24H9.528L5.016 13.104V24H1.656V7.248H5.472L10.8 19.704L16.128 7.248H19.92ZM24.9459 9.12C24.3539 9.12 23.8579 8.936 23.4579 8.568C23.0739 8.184 22.8819 7.712 22.8819 7.152C22.8819 6.592 23.0739 6.128 23.4579 5.76C23.8579 5.376 24.3539 5.184 24.9459 5.184C25.5379 5.184 26.0259 5.376 26.4099 5.76C26.8099 6.128 27.0099 6.592 27.0099 7.152C27.0099 7.712 26.8099 8.184 26.4099 8.568C26.0259 8.936 25.5379 9.12 24.9459 9.12ZM26.6019 10.704V24H23.2419V10.704H26.6019ZM35.1296 10.488C36.1216 10.488 36.9936 10.688 37.7456 11.088C38.4976 11.472 39.0896 11.976 39.5216 12.6V10.704H42.9056V24.096C42.9056 25.328 42.6576 26.424 42.1616 27.384C41.6656 28.36 40.9216 29.128 39.9296 29.688C38.9376 30.264 37.7376 30.552 36.3296 30.552C34.4416 30.552 32.8896 30.112 31.6736 29.232C30.4736 28.352 29.7936 27.152 29.6336 25.632H32.9696C33.1456 26.24 33.5216 26.72 34.0976 27.072C34.6896 27.44 35.4016 27.624 36.2336 27.624C37.2096 27.624 38.0016 27.328 38.6096 26.736C39.2176 26.16 39.5216 25.28 39.5216 24.096V22.032C39.0896 22.656 38.4896 23.176 37.7216 23.592C36.9696 24.008 36.1056 24.216 35.1296 24.216C34.0096 24.216 32.9856 23.928 32.0576 23.352C31.1296 22.776 30.3936 21.968 29.8496 20.928C29.3216 19.872 29.0576 18.664 29.0576 17.304C29.0576 15.96 29.3216 14.768 29.8496 13.728C30.3936 12.688 31.1216 11.888 32.0336 11.328C32.9616 10.768 33.9936 10.488 35.1296 10.488ZM39.5216 17.352C39.5216 16.536 39.3616 15.84 39.0416 15.264C38.7216 14.672 38.2896 14.224 37.7456 13.92C37.2016 13.6 36.6176 13.44 35.9936 13.44C35.3696 13.44 34.7936 13.592 34.2656 13.896C33.7376 14.2 33.3056 14.648 32.9696 15.24C32.6496 15.816 32.4896 16.504 32.4896 17.304C32.4896 18.104 32.6496 18.808 32.9696 19.416C33.3056 20.008 33.7376 20.464 34.2656 20.784C34.8096 21.104 35.3856 21.264 35.9936 21.264C36.6176 21.264 37.2016 21.112 37.7456 20.808C38.2896 20.488 38.7216 20.04 39.0416 19.464C39.3616 18.872 39.5216 18.168 39.5216 17.352ZM58.7393 10.704V24H55.3553V22.32C54.9233 22.896 54.3553 23.352 53.6513 23.688C52.9633 24.008 52.2113 24.168 51.3953 24.168C50.3553 24.168 49.4353 23.952 48.6353 23.52C47.8353 23.072 47.2033 22.424 46.7393 21.576C46.2913 20.712 46.0673 19.688 46.0673 18.504V10.704H49.4273V18.024C49.4273 19.08 49.6913 19.896 50.2193 20.472C50.7473 21.032 51.4673 21.312 52.3793 21.312C53.3073 21.312 54.0353 21.032 54.5633 20.472C55.0913 19.896 55.3553 19.08 55.3553 18.024V10.704H58.7393ZM74.4144 17.064C74.4144 17.544 74.3824 17.976 74.3184 18.36H64.5984C64.6784 19.32 65.0144 20.072 65.6064 20.616C66.1984 21.16 66.9264 21.432 67.7904 21.432C69.0384 21.432 69.9264 20.896 70.4544 19.824H74.0784C73.6944 21.104 72.9584 22.16 71.8704 22.992C70.7824 23.808 69.4464 24.216 67.8624 24.216C66.5824 24.216 65.4304 23.936 64.4064 23.376C63.3984 22.8 62.6064 21.992 62.0304 20.952C61.4704 19.912 61.1904 18.712 61.1904 17.352C61.1904 15.976 61.4704 14.768 62.0304 13.728C62.5904 12.688 63.3744 11.888 64.3824 11.328C65.3904 10.768 66.5504 10.488 67.8624 10.488C69.1264 10.488 70.2544 10.76 71.2464 11.304C72.2544 11.848 73.0304 12.624 73.5744 13.632C74.1344 14.624 74.4144 15.768 74.4144 17.064ZM70.9344 16.104C70.9184 15.24 70.6064 14.552 69.9984 14.04C69.3904 13.512 68.6464 13.248 67.7664 13.248C66.9344 13.248 66.2304 13.504 65.6544 14.016C65.0944 14.512 64.7504 15.208 64.6224 16.104H70.9344ZM80.2269 6.24V24H76.8669V6.24H80.2269ZM92.5774 7.248V17.616C92.5774 18.752 92.8734 19.624 93.4654 20.232C94.0574 20.824 94.8894 21.12 95.9614 21.12C97.0494 21.12 97.8894 20.824 98.4814 20.232C99.0734 19.624 99.3694 18.752 99.3694 17.616V7.248H102.753V17.592C102.753 19.016 102.441 20.224 101.817 21.216C101.209 22.192 100.385 22.928 99.3454 23.424C98.3214 23.92 97.1774 24.168 95.9134 24.168C94.6654 24.168 93.5294 23.92 92.5054 23.424C91.4974 22.928 90.6974 22.192 90.1054 21.216C89.5134 20.224 89.2174 19.016 89.2174 17.592V7.248H92.5774ZM109.36 7.248V24H106V7.248H109.36Z" fill="white"/>
</svg>
